<?xml version="1.0" encoding="UTF-8"?>
<svg width="975px" height="281px" viewBox="0 0 975 281" version="1.1" xmlns="http://www.w3.org/2000/svg"
     xmlns:xlink="http://www.w3.org/1999/xlink">
    <g id="Page-1" stroke="none" stroke-width="1" fill="none" fill-rule="evenodd">
        <g id="ufb-logo-coral">
            <g id="Group">
                <path d="M335.969191,158.429326 C334.768014,157.47047 333.420687,156.825174 331.954612,156.552513 C323.281479,165.150405 312.694684,174.211819 303.299931,180.301234 C298.961081,183.168713 293.507831,184.60018 289.895167,184.60018 C281.582843,184.60018 277.970179,176.71575 276.88775,164.18246 C275.444512,147.34568 274.467128,127.177899 274.467128,96.0082714 C274.467128,64.0388394 267.173293,42.3123498 247.748945,40.603678 C246.931414,40.5309685 246.095614,40.4809808 245.232411,40.4809808 C233.311991,40.4809808 227.529902,46.5749407 219.943764,61.975709 C213.440056,75.2315488 203.323684,94.5768043 184.534178,131.117842 C168.274907,162.641929 150.207021,190.585076 134.669369,209.930331 C130.339653,215.297197 126.92338,218.973568 123.708063,221.073053 C121.556907,222.481798 119.501662,223.186171 117.32767,223.186171 C111.193905,223.186171 106.718039,218.032889 105.224561,206.04492 C104.868318,203.195619 104.681063,199.964593 104.681063,196.315488 C104.681063,171.594279 114.075815,131.476845 130.335086,72.3686146 C142.255507,29.3791582 137.199604,0 111.184771,0 C111.139099,0 111.102561,0.00454434001 111.056889,0.00454434001 C111.002082,0.00454434001 110.947276,0 110.892469,0 L110.869633,0.00908868002 C104.982498,0.0772537801 100.095583,2.2040049 95.3913556,5.88492031 C90.7602037,9.51130364 86.1199174,17.3548345 81.7902015,27.893159 C76.9169874,39.7629751 47.2483853,98.9757254 0.0325588501,129.472791 C-0.524640882,141.074491 6.07497889,152.662558 19.4432052,153.92134 C31.6148223,155.066514 40.2514182,149.967765 51.377144,142.52868 C50.5459116,146.223228 49.7740529,149.681471 49.0752697,152.844332 C48.2440373,156.579779 47.5361196,159.801716 46.9697854,162.401079 C46.1248514,166.272857 45.5813533,168.758611 45.4215009,169.44935 C43.8823509,176.50671 42.7770858,183.205067 42.0600337,189.567143 C35.4010402,248.779894 62.9824269,278 95.2863097,278 C100.684753,278 106.032957,277.354704 111.344623,276.014123 C146.932331,267.029963 181.195547,226.412652 221.747813,132.908312 C221.135807,143.078545 221.071866,152.58076 221.510318,161.39678 C224.186703,214.983637 245.488175,231.066056 275.586095,231.066056 C298.349074,231.066056 319.668815,219.246228 330.506806,204.554377 C338.453753,194.166016 341.705607,182.70519 341.705607,173.748296 C341.705607,166.8 339.49051,161.246817 335.969191,158.429326"
                      id="Fill-1" fill="#EB5352"></path>
                <path d="M898.938498,168.622951 L926.802748,168.622951 L975,47.0924634 L947.423481,47.0924634 L927.496957,107.621426 L906.510851,47.0924634 L875.732752,47.0924634 L912.379653,134.875589 L898.938498,168.622951 Z M759.841037,75.9415274 L759.841037,138.238057 L731.734727,138.238057 L731.734727,47.0924634 L751.483132,47.0924634 L757.351934,55.0578767 C765.001929,48.6828198 773.181715,44.9704737 782.612902,44.9704737 C795.241103,44.9704737 804.85041,48.6828198 810.719212,57.888711 C819.255237,50.1005088 828.330186,44.9704737 839.894238,44.9704737 C861.597388,44.9704737 874.225589,56.1165997 874.225589,86.3833527 L874.225589,138.238057 L846.119279,138.238057 L846.119279,89.5686092 C846.119279,75.5871051 840.428596,71.5157929 831.353647,71.5157929 C826.019202,71.5157929 821.570787,72.933482 816.588014,76.1187385 C816.944253,79.3039951 817.122372,82.6664627 817.122372,86.3833527 L817.122372,138.238057 L789.016062,138.238057 L789.016062,89.5686092 C789.016062,75.5871051 783.32538,71.5157929 774.072311,71.5157929 C768.911419,71.5157929 764.64569,72.7562708 759.841037,75.9415274 L759.841037,75.9415274 Z M661.816056,83.7297296 L697.924033,83.7297296 C695.969288,71.874759 689.566128,66.2040027 679.961388,66.2040027 C671.777035,66.2040027 663.948921,70.9841595 661.816056,83.7297296 L661.816056,83.7297296 Z M681.916133,140.010168 C654.878538,140.010168 633.175389,126.737509 633.175389,91.6951429 C633.175389,58.9519778 654.166061,44.7932625 678.358314,44.7932625 C707.53334,44.7932625 720.522346,65.1452798 720.522346,97.1796003 L661.637937,97.1796003 C663.597249,112.933216 673.380108,117.531618 686.364548,117.531618 C697.216123,117.531618 706.820863,115.055206 714.827096,110.275049 L710.913039,132.576388 C703.619283,137.710968 694.370781,140.010168 681.916133,140.010168 L681.916133,140.010168 Z M578.237007,116.472895 C584.640167,116.472895 589.440253,115.409628 594.423026,111.692738 L594.423026,72.0474263 C589.979178,69.3938031 585.530763,68.1533252 579.123036,68.1533252 C565.430687,68.1533252 557.598005,77.3592165 557.598005,92.7538658 C557.598005,107.798637 565.608806,116.472895 578.237007,116.472895 L578.237007,116.472895 Z M599.940157,131.513122 C592.6464,137.002123 584.283928,140.364591 572.363637,140.364591 C547.280788,140.364591 529.135457,124.965397 529.135457,93.2854992 C529.135457,61.7828121 549.952577,44.7932625 576.633933,44.7932625 C582.858974,44.7932625 588.910462,45.6747743 594.423026,47.801308 L594.423026,9.1147541 L622.529336,9.1147541 L622.529336,138.238057 L604.740243,138.238057 L599.940157,131.513122 Z M410.046729,84.261363 L410.046729,16.7121135 L439.217187,16.7121135 L439.217187,83.7297296 C439.217187,107.798637 450.068762,112.756005 465.012514,112.756005 C481.2031,112.756005 489.561005,105.672103 489.561005,83.7297296 L489.561005,16.7121135 L518.91415,16.7121135 L518.91415,84.261363 C518.91415,124.079342 501.481296,140.714469 463.592127,140.714469 C428.37018,140.714469 410.046729,126.383087 410.046729,84.261363 L410.046729,84.261363 Z"
                      id="Fill-4" fill="#645A53"></path>
                <path d="M428.399273,217.370776 L428.399273,255.213115 L420.659571,255.213115 L420.659571,217.370776 L414.602804,217.370776 L414.602804,211.264313 L420.659571,211.264313 L420.659571,205.162516 C420.659571,190.859679 426.459848,186.852459 435.126514,186.852459 C437.30893,186.852459 439.414849,187.197668 441.349775,187.80878 L441.939252,195.310073 C440.256317,194.610325 438.487885,194.349086 436.723953,194.349086 C430.838179,194.349086 428.399273,197.577254 428.399273,204.901277 L428.399273,211.264313 L438.991866,211.264313 L438.991866,217.370776 L428.399273,217.370776 Z"
                      id="Fill-7" fill="#645A53"></path>
                <path d="M475.033647,232.294886 C475.033647,222.30359 469.87817,216.533708 462.395599,216.533708 C454.917627,216.533708 449.844931,222.391152 449.844931,232.294886 C449.844931,242.719385 455.262552,248.318751 462.48298,248.318751 C469.960952,248.318751 475.033647,242.631823 475.033647,232.294886 M441.939252,232.557573 C441.939252,218.94397 449.844931,209.639344 462.395599,209.639344 C475.465953,209.639344 482.943925,218.169737 482.943925,232.382448 C482.943925,246.079005 474.946266,255.213115 462.225436,255.213115 C449.417224,255.213115 441.939252,246.853238 441.939252,232.557573"
                      id="Fill-9" fill="#645A53"></path>
                <path d="M499.540744,223.772174 L499.540744,255.213115 L492.056075,255.213115 L492.056075,210.697771 L497.913264,210.697771 L499.379736,217.327112 C503.039392,212.290136 508.404855,209.639344 514.836449,209.639344 L514.836449,217.501942 C509.627641,217.501942 503.609445,220.062956 499.540744,223.772174"
                      id="Fill-11" fill="#645A53"></path>
                <path d="M559.910698,248.174604 C569.952567,248.174604 574.554904,245.269747 574.554904,236.997731 C574.554904,229.342467 568.779598,226.790713 559.158565,226.790713 L550.119539,226.790713 L550.119539,248.174604 L559.910698,248.174604 Z M559.073502,219.832238 C568.027465,219.832238 572.12838,217.106286 572.12838,209.276826 C572.12838,201.706307 567.360395,198.448347 558.070658,198.448347 L550.119539,198.448347 L550.119539,219.832238 L559.073502,219.832238 Z M561.168729,255.213115 L542.172897,255.213115 L542.172897,191.409836 L559.745049,191.409836 C571.882146,191.409836 580.334687,196.254403 580.334687,207.779671 C580.334687,214.728729 577.908163,220.274793 569.451145,223.094906 C579.913851,224.76155 583.17757,230.043964 583.17757,237.78868 C583.17757,250.552161 574.21913,255.213115 561.168729,255.213115 L561.168729,255.213115 Z"
                      id="Fill-13" fill="#645A53"></path>
                <path d="M625.39101,250.091617 C621.787029,253.446104 617.835338,255.213115 613.094248,255.213115 C602.813271,255.213115 596.845794,249.73727 596.845794,236.839033 L596.845794,209.639344 L604.927732,209.639344 L604.927732,235.516137 C604.927732,244.615772 608.348459,247.351332 614.325334,247.351332 C618.098471,247.351332 621.434619,246.113479 625.212455,243.023572 L625.212455,209.639344 L633.294393,209.639344 L633.294393,254.150073 L627.054385,254.150073 L625.39101,250.091617 Z"
                      id="Fill-15" fill="#645A53"></path>
                <path d="M643.749335,252.003956 L642.406542,243.844054 C646.339348,246.6213 651.786977,248.27 657.411415,248.27 C663.040632,248.27 666.433454,246.53306 666.433454,241.935278 C666.433454,238.897956 665.095439,237.504688 658.840223,235.595912 L656.073401,234.815683 C647.854171,232.210273 644.102953,229.344787 644.102953,222.141595 C644.102953,214.06529 649.641376,209.639344 659.466223,209.639344 C663.84344,209.639344 668.397467,210.684295 671.436671,212.244754 L672.511861,219.884502 C669.023467,217.975726 663.934234,216.587103 659.824619,216.587103 C654.286196,216.587103 651.963786,218.58412 651.963786,221.965115 C651.963786,224.918841 653.397373,226.483945 658.395811,227.956164 L660.985824,228.736394 C671.259862,231.77836 674.299065,234.727443 674.299065,241.415125 C674.299065,250.531737 668.220658,255.213115 657.77459,255.213115 C652.145374,255.213115 646.78376,254.000972 643.749335,252.003956"
                      id="Fill-17" fill="#645A53"></path>
                <path d="M679.66888,250.655738 L687.149198,250.655738 L687.149198,208.004018 L679.66888,208.004018 L679.66888,250.655738 Z M678.85514,196.246612 L687.96729,196.246612 L687.96729,186.852459 L678.85514,186.852459 L678.85514,196.246612 Z"
                      id="Fill-19" fill="#645A53"></path>
                <path d="M705.160335,221.830151 L705.160335,255.213115 L697.079439,255.213115 L697.079439,210.702496 L703.313944,210.702496 L704.986502,214.766098 C708.585319,211.406539 712.536501,209.639344 717.281678,209.639344 C727.556631,209.639344 733.528037,215.115757 733.528037,228.015331 L733.528037,255.213115 L725.447142,255.213115 L725.447142,229.338364 C725.447142,220.237786 722.022157,217.501942 716.050751,217.501942 C712.278101,217.501942 708.937684,218.739923 705.160335,221.830151"
                      id="Fill-21" fill="#645A53"></path>
                <path d="M750.453745,227.749263 L772.42415,227.749263 C771.438101,220.119643 767.898889,216.397538 761.810917,216.397538 C756.708994,216.397538 751.686306,219.51706 750.453745,227.749263 M762.466816,255.213115 C751.60707,255.213115 742.640187,248.890635 742.640187,232.33816 C742.640187,217.004755 751.444196,209.639344 761.643641,209.639344 C773.577475,209.639344 779.088785,217.959617 779.088785,233.816804 L750.290871,233.816804 C750.867534,244.90432 756.625356,248.111913 763.206352,248.111913 C768.475552,248.111913 772.670662,246.725973 776.456386,244.120963 L775.386699,252.093592 C772.010362,254.174819 768.145402,255.213115 762.466816,255.213115"
                      id="Fill-22" fill="#645A53"></path>
                <path d="M784.987653,252.003956 L783.64486,243.844054 C787.577666,246.6213 793.025295,248.27 798.649733,248.27 C804.27895,248.27 807.671771,246.53306 807.671771,241.935278 C807.671771,238.897956 806.333757,237.504688 800.078541,235.595912 L797.311719,234.815683 C789.092489,232.210273 785.341271,229.344787 785.341271,222.141595 C785.341271,214.06529 790.879694,209.639344 800.70454,209.639344 C805.081758,209.639344 809.635785,210.684295 812.674989,212.244754 L813.750179,219.884502 C810.261784,217.975726 805.172552,216.587103 801.062937,216.587103 C795.524514,216.587103 793.206882,218.58412 793.206882,221.965115 C793.206882,224.918841 794.63569,226.483945 799.634129,227.956164 L802.224142,228.736394 C812.49818,231.77836 815.537383,234.727443 815.537383,241.415125 C815.537383,250.531737 809.458976,255.213115 799.012908,255.213115 C793.383691,255.213115 788.022078,254.000972 784.987653,252.003956"
                      id="Fill-23" fill="#645A53"></path>
                <path d="M821.436251,252.003956 L820.093458,243.844054 C824.026264,246.6213 829.473893,248.27 835.098331,248.27 C840.727548,248.27 844.120369,246.53306 844.120369,241.935278 C844.120369,238.897956 842.782355,237.504688 836.527139,235.595912 L833.760317,234.815683 C825.541087,232.210273 821.789869,229.344787 821.789869,222.141595 C821.789869,214.06529 827.328292,209.639344 837.153139,209.639344 C841.530356,209.639344 846.084383,210.684295 849.123587,212.244754 L850.198777,219.884502 C846.710383,217.975726 841.62115,216.587103 837.511535,216.587103 C831.973112,216.587103 829.650702,218.58412 829.650702,221.965115 C829.650702,224.918841 831.084289,226.483945 836.082727,227.956164 L838.67274,228.736394 C848.946778,231.77836 851.985981,234.727443 851.985981,241.415125 C851.985981,250.531737 845.907574,255.213115 835.461506,255.213115 C829.83229,255.213115 824.470676,254.000972 821.436251,252.003956"
                      id="Fill-24" fill="#645A53"></path>
            </g>
        </g>
    </g>
</svg>
